<svg width="613" height="615" viewBox="0 0 613 615" fill="none" xmlns="http://www.w3.org/2000/svg">
    <g opacity="0.2">
        <path d="M132.988 157.177V108.426L175.061 84.2069V132.802L132.988 157.177Z" stroke="#058F2C"/>
        <path d="M42.6418 247.652V296.247L0.568848 320.622V271.871L42.6418 247.652Z" stroke="#058F2C"/>
        <path d="M47.7287 564.058L87.4626 541.022V589.615L45.3896 613.989V568.016C46.7009 567.513 47.7738 566.163 47.7738 564.631L47.7738 564.612C47.7738 564.468 47.7739 564.312 47.7471 564.152C47.7419 564.12 47.7357 564.089 47.7287 564.058Z" stroke="#058F2C"/>
        <path d="M43.1444 564.79V564.821L43.1483 564.852C43.3151 566.186 44.2452 567.533 45.6875 568.029V613.993L3.45557 589.772V541.181L43.2446 564.249C43.2046 564.369 43.1444 564.552 43.1444 564.79Z" stroke="#058F2C"/>
        <path d="M528.79 484.711V533.306L486.717 557.681V508.93L528.79 484.711Z" stroke="#058F2C"/>
        <path d="M443.314 484.554V530.705C442.987 530.842 442.627 531.027 442.333 531.239L402.533 508.164L443.314 484.554Z" stroke="#058F2C"/>
        <path d="M444.315 484.125L402.242 459.751V411.159L442.031 434.227C441.991 434.347 441.931 434.53 441.931 434.768C441.931 436.287 442.865 437.665 444.315 438.165V484.125Z" stroke="#058F2C"/>
        <path d="M442.648 387.781V433.932C442.321 434.068 441.961 434.254 441.667 434.466L401.867 411.391L442.648 387.781Z" stroke="#058F2C"/>
        <path d="M401.713 459.964L443.941 484.338L424.987 495.191L424.984 495.192L401.712 508.715L359.638 484.341L378.439 473.488L378.44 473.487L401.713 459.964Z" stroke="#058F2C"/>
        <path d="M442.741 533.681L403.007 556.718V509.5L442.796 532.568C442.756 532.688 442.696 532.871 442.696 533.109L442.696 533.128C442.696 533.272 442.696 533.428 442.722 533.588C442.728 533.62 442.734 533.651 442.741 533.681Z" stroke="#058F2C"/>
        <path d="M484.621 363.154V411.747L443.529 435.587C443.235 435.376 442.875 435.19 442.548 435.054V387.529L484.621 363.154Z" stroke="#058F2C"/>
        <path d="M266.927 339.168C266.927 337.602 265.951 336.393 264.543 335.802V289.81L306.616 314.184V362.777L266.827 339.708C266.867 339.589 266.927 339.406 266.927 339.168Z" stroke="#058F2C"/>
        <path d="M266.27 386.958V340.806C266.597 340.67 266.957 340.484 267.251 340.273L307.051 363.348L266.27 386.958Z" stroke="#058F2C"/>
        <path d="M307.206 265.021L349.279 289.24L307.206 313.615L264.978 289.241L285.361 277.594L285.363 277.593L307.206 265.021Z" stroke="#058F2C"/>
        <path d="M264.543 288.829V240.077L306.775 215.856V264.452L264.543 288.829Z" stroke="#058F2C"/>
        <path d="M218.154 158.904V110.153L260.227 85.9337V134.529L218.154 158.904Z" stroke="#058F2C"/>
        <path d="M218.155 159.021V207.617L204.261 215.735L204.257 215.737L175.923 231.994V183.398L218.155 159.021Z" stroke="#058F2C"/>
        <path d="M175.061 281.051L154.356 268.935L154.353 268.933L132.988 256.679V208.084L153.854 220.051L153.855 220.052L175.061 232.304V281.051Z" stroke="#058F2C"/>
        <path d="M132.988 207.616V159.023L175.061 183.397V231.991L154.355 220.028L154.354 220.027L132.988 207.616Z" stroke="#058F2C"/>
        <path d="M85.5769 126.56V174.155C85.2951 174.282 85.0012 174.442 84.7545 174.619L43.5039 150.779V102.186L85.5769 126.56Z" stroke="#058F2C"/>
        <path d="M45.3498 1.29373L86.5996 24.977V73.5729L44.3677 49.3516V1.82788C44.6953 1.69152 45.0562 1.50535 45.3498 1.29373Z" stroke="#058F2C"/>
        <path d="M43.3925 98.1838L1.86145 74.1395L43.9372 49.7635L86.1682 74.1395L44.4816 98.1834L44.4816 98.1833L44.4742 98.1878L43.9367 98.5102L43.3993 98.1878L43.3993 98.1877L43.3925 98.1838Z" stroke="#058F2C"/>
        <path d="M0.568848 175.153V126.56L42.6418 102.186V150.779L0.568848 175.153Z" stroke="#058F2C"/>
        <path d="M0.568848 223.16V174.409L42.6418 198.783V247.379L0.568848 223.16Z" stroke="#058F2C"/>
        <path d="M43.0736 199.079L1.00118 174.86L19.7987 164.009L19.7997 164.009L43.0717 150.643L84.1568 174.479C84.1167 174.599 84.0565 174.781 84.0565 175.02V175.038C84.0565 175.182 84.0564 175.338 84.0832 175.499C84.0883 175.53 84.0942 175.56 84.101 175.59L43.0736 199.079Z" stroke="#058F2C"/>
        <path d="M90.0522 231.796V184.271C90.3794 184.135 90.7396 183.949 91.033 183.738L132.125 207.578V256.171L90.0522 231.796Z" stroke="#058F2C"/>
        <path d="M90.0522 330.121V281.37L132.125 257.151V305.746L90.0522 330.121Z" stroke="#058F2C"/>
        <path d="M47.981 404.071V358.098C49.2922 357.594 50.3651 356.245 50.3651 354.713L50.3651 354.694C50.3651 354.55 50.3652 354.394 50.3384 354.233C50.3332 354.202 50.3271 354.171 50.32 354.14L90.0539 331.104V379.696L47.981 404.071Z" stroke="#058F2C"/>
        <path d="M90.0539 380.169V428.761L47.981 453.136V404.543L90.0539 380.169Z" stroke="#058F2C"/>
        <path d="M47.4529 453.995V502.587L5.37988 526.962V478.369L47.4529 453.995Z" stroke="#058F2C"/>
        <path d="M47.981 502.201V453.45L90.0539 429.231V477.826L47.981 502.201Z" stroke="#058F2C"/>
        <path d="M132.125 453.136V404.543L173.217 380.703C173.51 380.914 173.87 381.1 174.197 381.236V428.761L132.125 453.136Z" stroke="#058F2C"/>
        <path d="M132.125 454.115V502.201L90.0522 477.826V429.231L132.125 453.45V454.115Z" stroke="#058F2C"/>
        <path d="M175.061 281.369V330.121L132.988 305.746V257.149L153.854 269.116L153.855 269.117L175.061 281.369Z" stroke="#058F2C"/>
        <path d="M214.793 258.019L175.06 281.055V232.462L199.445 218.303L199.446 218.302L217.133 208.087V254.061C215.821 254.564 214.748 255.914 214.748 257.446L214.748 257.465C214.748 257.609 214.748 257.765 214.775 257.925C214.78 257.957 214.786 257.988 214.793 258.019Z" stroke="#058F2C"/>
        <path d="M262.7 337.358L221.608 313.518V265.993C221.935 265.857 222.295 265.671 222.589 265.46L263.681 289.299V336.825C263.354 336.961 262.994 337.147 262.7 337.358Z" stroke="#058F2C"/>
        <path d="M224.199 412.706V364.113L265.291 340.273C265.584 340.484 265.945 340.67 266.272 340.806V388.336L265.723 388.666L265.72 388.668L224.199 412.706Z" stroke="#058F2C"/>
        <path d="M224.199 510.836V462.086L266.272 437.866V486.462L224.199 510.836Z" stroke="#058F2C"/>
        <path d="M266.272 388.804V437.397L224.199 461.771V413.178L266.272 388.804Z" stroke="#058F2C"/>
        <path d="M224.496 510.285L182.264 534.662V488.052C183.575 487.548 184.648 486.199 184.648 484.667V484.666V484.665V484.664V484.663V484.662V484.661V484.66V484.659V484.658V484.657V484.657V484.656V484.655V484.654V484.653V484.652V484.651V484.65V484.65V484.649V484.648V484.647V484.646V484.645V484.644V484.644V484.643V484.642V484.641V484.64V484.639V484.639V484.638L224.496 461.69V510.285Z" stroke="#058F2C"/>
        <path d="M266.271 535.22V583.814L224.039 559.438V510.844L266.271 535.22Z" stroke="#058F2C"/>
        <path d="M308.502 462.244V509.61C308.175 509.746 307.815 509.932 307.521 510.143L266.429 486.303V437.869L308.502 462.244Z" stroke="#058F2C"/>
        <path d="M308.502 461.773L266.27 437.396V388.802L308.502 413.179V461.773Z" stroke="#058F2C"/>
        <path d="M308.069 412.609L265.84 388.234L308.108 363.992L308.645 364.207L350.145 388.233L308.069 412.609Z" stroke="#058F2C"/>
        <path d="M400.305 411.512L358.776 387.469L400.849 363.25L443.078 387.469L401.394 411.512L401.394 411.512L401.386 411.516L400.849 411.839L400.311 411.516L400.311 411.516L400.305 411.512Z" stroke="#058F2C"/>
        <path d="M360.269 483.969V435.374L402.342 410.999V459.75L360.269 483.969Z" stroke="#058F2C"/>
        <path d="M360.183 533.429V582.025L318.11 606.399V557.649L360.183 533.429Z" stroke="#058F2C"/>
        <path d="M402.342 557.681L360.269 533.306V484.711L402.342 508.93V557.681Z" stroke="#058F2C"/>
        <path d="M444.118 534.391V580.386L403.339 556.931L443.137 533.858C443.43 534.069 443.79 534.255 444.118 534.391Z" stroke="#058F2C"/>
        <path d="M446.363 534.071V534.044L446.36 534.016C446.198 532.562 445.293 531.199 443.979 530.687V484.713L486.052 509.088V557.68L446.263 534.612C446.303 534.492 446.363 534.309 446.363 534.071Z" stroke="#058F2C"/>
        <path d="M528.79 582.074L486.717 606.293V557.699L528.79 533.479V582.074Z" stroke="#058F2C"/>
        <path d="M570.725 509.498V558.092L528.493 582.468V533.874L570.725 509.498Z" stroke="#058F2C"/>
        <path d="M611.552 533.341L570.427 509.483V460.89L612.5 485.264V532.796C612.169 532.947 611.849 533.146 611.552 533.341Z" stroke="#058F2C"/>
    </g>
</svg>
