<svg width="1144" height="240" viewBox="0 0 1144 240" fill="none" xmlns="http://www.w3.org/2000/svg">
    <g opacity="0.5">
        <g opacity="0.5">
            <path d="M1096.82 -16.5404L1097.41 32.0516L1139.77 55.9179L1139.19 7.17058L1096.82 -16.5404Z" stroke="#F6B52E"/>
            <path d="M613.564 226.352L614.149 274.944L656.513 298.81L655.926 250.063L613.564 226.352Z" stroke="#F6B52E"/>
            <path d="M699.032 225.167L699.587 271.315C699.916 271.447 700.279 271.628 700.575 271.836L740.094 248.284L699.032 225.167Z" stroke="#F6B52E"/>
            <path d="M698.026 224.75L739.803 199.871L739.218 151.282L699.709 174.828C699.751 174.947 699.813 175.129 699.816 175.367C699.834 176.886 698.917 178.275 697.473 178.793L698.026 224.75Z" stroke="#F6B52E"/>
            <path d="M698.533 128.392L699.089 174.541C699.417 174.673 699.78 174.854 700.076 175.062L739.595 151.51L698.533 128.392Z" stroke="#F6B52E"/>
            <path d="M740.334 200.078L698.403 224.958L717.486 235.582L717.488 235.584L740.922 248.826L782.699 223.946L763.769 213.321L763.768 213.32L740.334 200.078Z" stroke="#F6B52E"/>
            <path d="M656.267 104.273L656.852 152.862L698.228 176.206C698.519 175.991 698.877 175.801 699.202 175.661L698.63 128.139L656.267 104.273Z" stroke="#F6B52E"/>
            <path d="M873.657 77.668C873.638 76.1028 874.599 74.8814 876 74.2737L875.447 28.2851L833.67 53.164L834.255 101.753L873.763 78.2075C873.722 78.0881 873.659 77.9061 873.657 77.668Z" stroke="#F6B52E"/>
            <path d="M874.889 125.447L874.333 79.2987C874.005 79.1664 873.642 78.985 873.346 78.7773L833.827 102.329L874.889 125.447Z" stroke="#F6B52E"/>
            <path d="M832.488 4.01196L790.709 28.7358L833.073 52.6024L875.004 27.722L854.482 16.3206L854.481 16.3199L832.488 4.01196Z" stroke="#F6B52E"/>
            <path d="M875.435 27.3042L874.848 -21.4441L832.328 -45.1553L832.912 3.43776L875.435 27.3042Z" stroke="#F6B52E"/>
            <path d="M985.374 6.08556L985.378 6.08335L1006.59 -6.42616L1006.01 -55.0183L985.288 -42.8009L985.287 -42.8001L964.23 -30.2936L964.817 18.4499L985.374 6.08556Z" stroke="#F6B52E"/>
            <path d="M1050.41 66.4931L1049.82 17.7458L1007.46 -5.96524L1008.05 42.6268L1050.41 66.4931Z" stroke="#F6B52E"/>
            <path d="M1093.37 139.931L1092.81 93.9619C1091.5 93.4741 1090.41 92.1376 1090.39 90.6058L1090.39 90.587C1090.39 90.443 1090.39 90.2869 1090.41 90.1259C1090.42 90.0945 1090.42 90.0635 1090.43 90.0326L1050.42 67.4761L1051 116.065L1093.37 139.931Z" stroke="#F6B52E"/>
            <path d="M1051.01 116.538L1051.6 165.127L1093.96 188.993L1093.37 140.404L1051.01 116.538Z" stroke="#F6B52E"/>
            <path d="M1094.5 189.845L1095.08 238.435L1137.44 262.301L1136.86 213.712L1094.5 189.845Z" stroke="#F6B52E"/>
            <path d="M1094.55 238.055L1093.96 189.307L1051.6 165.596L1052.19 214.188L1094.55 238.055Z" stroke="#F6B52E"/>
            <path d="M1009.82 190.006L1009.24 141.416L967.86 118.073C967.569 118.287 967.211 118.477 966.886 118.618L967.458 166.139L1009.82 190.006Z" stroke="#F6B52E"/>
            <path d="M1009.83 190.985L1010.41 239.067L1052.19 214.188L1051.6 165.596L1009.82 190.32L1009.83 190.985Z" stroke="#F6B52E"/>
            <path d="M964.821 18.7682L965.407 67.516L1007.18 42.6371L1006.6 -5.95657L985.879 6.26085L985.877 6.26166L964.821 18.7682Z" stroke="#F6B52E"/>
            <path d="M924.81 -4.10262L964.818 18.4539L964.233 -30.1354L939.679 -44.0004L939.678 -44.001L921.87 -54.0026L922.423 -8.03189C923.74 -7.5441 924.829 -6.20765 924.848 -4.67578L924.848 -4.65694C924.85 -4.51304 924.852 -4.35694 924.827 -4.19596C924.822 -4.16453 924.816 -4.13348 924.81 -4.10262Z" stroke="#F6B52E"/>
            <path d="M877.861 75.8077L918.663 51.4752L918.091 3.9532C917.763 3.821 917.4 3.63956 917.104 3.43189L876.302 27.7645L876.874 75.2864C877.203 75.4186 877.565 75.6001 877.861 75.8077Z" stroke="#F6B52E"/>
            <path d="M917.267 150.687L916.682 102.097L875.306 78.7537C875.015 78.9685 874.657 79.1586 874.332 79.2987L874.904 126.826L875.456 127.148L875.46 127.15L917.267 150.687Z" stroke="#F6B52E"/>
            <path d="M918.448 248.81L917.861 200.063L875.5 176.352L876.085 224.944L918.448 248.81Z" stroke="#F6B52E"/>
            <path d="M874.909 127.293L875.494 175.882L917.857 199.748L917.273 151.159L874.909 127.293Z" stroke="#F6B52E"/>
            <path d="M918.144 248.262L960.666 272.129L960.105 225.522C958.788 225.034 957.699 223.698 957.68 222.166L957.68 222.165L957.68 222.164L957.68 222.163L957.68 222.162L957.68 222.161L957.68 222.161L957.68 222.16L957.68 222.159L957.68 222.158L957.68 222.157L957.68 222.156L957.68 222.155L957.68 222.154L957.68 222.153L957.68 222.153L957.68 222.152L957.68 222.151L957.68 222.15L957.68 222.149L957.68 222.148L957.68 222.147L957.68 222.146L957.68 222.146L957.68 222.145L957.68 222.144L957.68 222.143L957.68 222.142L957.68 222.141L957.68 222.141L957.68 222.14L957.68 222.139L957.68 222.138L957.68 222.137L917.559 199.671L918.144 248.262Z" stroke="#F6B52E"/>
            <path d="M833.566 201.235L834.136 248.598C834.465 248.73 834.827 248.912 835.123 249.119L875.925 224.787L875.342 176.356L833.566 201.235Z" stroke="#F6B52E"/>
            <path d="M833.56 200.765L875.496 175.882L874.911 127.291L832.975 152.174L833.56 200.765Z" stroke="#F6B52E"/>
            <path d="M833.401 151.599L875.334 126.718L832.777 102.986L832.243 103.207L791.035 127.731L833.401 151.599Z" stroke="#F6B52E"/>
            <path d="M741.159 151.613L782.396 127.072L740.034 103.361L698.1 128.086L740.07 151.626L740.07 151.625L740.078 151.63L740.619 151.946L741.153 151.617L741.153 151.617L741.159 151.613Z" stroke="#F6B52E"/>
            <path d="M782.064 223.583L781.479 174.991L739.116 151.124L739.702 199.872L782.064 223.583Z" stroke="#F6B52E"/>
            <path d="M740.881 297.795L782.657 272.916L782.073 224.324L740.294 249.048L740.881 297.795Z" stroke="#F6B52E"/>
            <path d="M696.579 274.717L696.579 274.689L696.581 274.662C696.726 273.206 697.614 271.833 698.922 271.304L698.369 225.334L656.592 250.213L657.177 298.802L696.686 275.257C696.644 275.137 696.582 274.955 696.579 274.717Z" stroke="#F6B52E"/>
            <path d="M531.393 275.975L572.228 251.624L571.643 203.034L529.867 227.913L530.439 275.442C530.772 275.589 531.094 275.784 531.393 275.975Z" stroke="#F6B52E"/>
        </g>
        <g opacity="0.5">
            <path d="M47.0578 -16.5404L46.4729 32.0516L4.10966 55.9179L4.69637 7.17058L47.0578 -16.5404Z" stroke="#F6B52E"/>
            <path d="M530.318 226.352L529.733 274.944L487.37 298.81L487.956 250.063L530.318 226.352Z" stroke="#F6B52E"/>
            <path d="M444.85 225.167L444.295 271.315C443.966 271.447 443.603 271.628 443.308 271.836L403.788 248.284L444.85 225.167Z" stroke="#F6B52E"/>
            <path d="M445.856 224.75L404.08 199.871L404.664 151.282L444.173 174.828C444.131 174.947 444.069 175.129 444.066 175.367C444.048 176.886 444.965 178.275 446.409 178.793L445.856 224.75Z" stroke="#F6B52E"/>
            <path d="M445.349 128.392L444.794 174.541C444.465 174.673 444.102 174.854 443.806 175.062L404.287 151.51L445.349 128.392Z" stroke="#F6B52E"/>
            <path d="M403.548 200.078L445.48 224.958L426.396 235.582L426.394 235.584L402.96 248.826L361.183 223.946L380.113 213.321L380.114 213.32L403.548 200.078Z" stroke="#F6B52E"/>
            <path d="M487.615 104.273L487.03 152.862L445.654 176.206C445.363 175.991 445.005 175.801 444.68 175.661L445.252 128.139L487.615 104.273Z" stroke="#F6B52E"/>
            <path d="M270.225 77.668C270.244 76.1028 269.283 74.8814 267.882 74.2737L268.436 28.2851L310.212 53.164L309.627 101.753L270.119 78.2075C270.16 78.0881 270.223 77.9061 270.225 77.668Z" stroke="#F6B52E"/>
            <path d="M268.993 125.447L269.549 79.2987C269.878 79.1664 270.24 78.985 270.536 78.7773L310.055 102.329L268.993 125.447Z" stroke="#F6B52E"/>
            <path d="M311.394 4.01196L353.173 28.7358L310.809 52.6024L268.878 27.722L289.4 16.3206L289.401 16.3199L311.394 4.01196Z" stroke="#F6B52E"/>
            <path d="M268.447 27.3042L269.034 -21.4441L311.554 -45.1553L310.97 3.43776L268.447 27.3042Z" stroke="#F6B52E"/>
            <path d="M179.065 18.4499L158.508 6.08556L158.504 6.08335L137.289 -6.42616L137.874 -55.0183L158.594 -42.8009L158.595 -42.8001L179.652 -30.2936L179.065 18.4499Z" stroke="#F6B52E"/>
            <path d="M93.4724 66.4931L94.0592 17.7458L136.421 -5.96524L135.836 42.6268L93.4724 66.4931Z" stroke="#F6B52E"/>
            <path d="M50.5142 139.931L51.0675 93.9619C52.3847 93.4741 53.4738 92.1376 53.4922 90.6058L53.4924 90.587C53.4942 90.443 53.4961 90.2869 53.4713 90.1259C53.4664 90.0945 53.4607 90.0635 53.454 90.0326L93.4623 67.4761L92.8775 116.065L50.5142 139.931Z" stroke="#F6B52E"/>
            <path d="M92.8718 116.538L92.287 165.127L49.9237 188.993L50.5085 140.404L92.8718 116.538Z" stroke="#F6B52E"/>
            <path d="M49.3854 189.845L48.8006 238.435L6.43735 262.301L7.02217 213.712L49.3854 189.845Z" stroke="#F6B52E"/>
            <path d="M49.3332 238.055L49.9199 189.307L92.2813 165.596L91.6965 214.188L49.3332 238.055Z" stroke="#F6B52E"/>
            <path d="M134.061 190.006L134.646 141.416L176.022 118.073C176.313 118.287 176.671 118.477 176.996 118.618L176.425 166.139L134.061 190.006Z" stroke="#F6B52E"/>
            <path d="M134.05 190.985L133.471 239.067L91.6948 214.188L92.2797 165.596L134.058 190.32L134.05 190.985Z" stroke="#F6B52E"/>
            <path d="M179.061 18.7682L178.475 67.516L136.698 42.6371L137.283 -5.95657L158.003 6.26085L158.005 6.26166L179.061 18.7682Z" stroke="#F6B52E"/>
            <path d="M219.072 -4.10262L179.064 18.4539L179.649 -30.1354L204.203 -44.0004L204.204 -44.001L222.012 -54.0026L221.459 -8.03189C220.142 -7.5441 219.053 -6.20765 219.034 -4.67578L219.034 -4.65694C219.032 -4.51304 219.03 -4.35694 219.055 -4.19596C219.06 -4.16453 219.066 -4.13348 219.072 -4.10262Z" stroke="#F6B52E"/>
            <path d="M266.021 75.8077L225.219 51.4752L225.791 3.9532C226.119 3.821 226.482 3.63956 226.778 3.43189L267.58 27.7645L267.008 75.2864C266.679 75.4186 266.317 75.6001 266.021 75.8077Z" stroke="#F6B52E"/>
            <path d="M226.615 150.687L227.2 102.097L268.576 78.7537C268.867 78.9685 269.225 79.1586 269.55 79.2987L268.978 126.826L268.426 127.148L268.423 127.15L226.615 150.687Z" stroke="#F6B52E"/>
            <path d="M225.434 248.81L226.021 200.063L268.382 176.352L267.798 224.944L225.434 248.81Z" stroke="#F6B52E"/>
            <path d="M268.973 127.293L268.388 175.882L226.025 199.748L226.61 151.159L268.973 127.293Z" stroke="#F6B52E"/>
            <path d="M225.738 248.262L183.216 272.129L183.777 225.522C185.094 225.034 186.183 223.698 186.202 222.166L186.202 222.165L186.202 222.164L186.202 222.163L186.202 222.162L186.202 222.161L186.202 222.161L186.202 222.16L186.202 222.159L186.202 222.158L186.202 222.157L186.202 222.156L186.202 222.155L186.202 222.154L186.202 222.153L186.202 222.153L186.202 222.152L186.202 222.151L186.202 222.15L186.202 222.149L186.202 222.148L186.202 222.147L186.202 222.146L186.202 222.146L186.202 222.145L186.202 222.144L186.202 222.143L186.202 222.142L186.202 222.141L186.202 222.141L186.202 222.14L186.202 222.139L186.202 222.138L186.202 222.137L226.323 199.671L225.738 248.262Z" stroke="#F6B52E"/>
            <path d="M310.316 201.235L309.746 248.598C309.418 248.73 309.055 248.912 308.759 249.119L267.957 224.787L268.54 176.356L310.316 201.235Z" stroke="#F6B52E"/>
            <path d="M310.322 200.765L268.386 175.882L268.971 127.291L310.907 152.174L310.322 200.765Z" stroke="#F6B52E"/>
            <path d="M310.481 151.599L268.548 126.718L311.105 102.986L311.639 103.207L352.847 127.731L310.481 151.599Z" stroke="#F6B52E"/>
            <path d="M402.723 151.613L361.487 127.072L403.848 103.361L445.782 128.086L403.812 151.626L403.812 151.625L403.804 151.63L403.263 151.946L402.73 151.617L402.73 151.617L402.723 151.613Z" stroke="#F6B52E"/>
            <path d="M361.818 223.583L362.403 174.991L404.767 151.124L404.18 199.872L361.818 223.583Z" stroke="#F6B52E"/>
            <path d="M403.001 297.795L361.225 272.916L361.81 224.324L403.588 249.048L403.001 297.795Z" stroke="#F6B52E"/>
            <path d="M447.303 274.717L447.303 274.689L447.301 274.662C447.157 273.206 446.268 271.833 444.96 271.304L445.513 225.334L487.29 250.213L486.705 298.802L447.196 275.257C447.238 275.137 447.3 274.955 447.303 274.717Z" stroke="#F6B52E"/>
            <path d="M612.489 275.975L571.654 251.624L572.239 203.034L614.015 227.913L613.443 275.442C613.11 275.589 612.788 275.784 612.489 275.975Z" stroke="#F6B52E"/>
        </g>
    </g>
</svg>
