<svg width="297" height="420" viewBox="0 0 297 420" fill="none" xmlns="http://www.w3.org/2000/svg">
    <g opacity="0.5">
        <path d="M228.782 339.059L228.346 375.325L196.729 393.137L197.167 356.755L228.782 339.059Z" stroke="#F6B52E"/>
        <path d="M164.493 338.168L164.079 372.585C163.871 372.673 163.649 372.785 163.455 372.913L133.98 355.347L164.493 338.168Z" stroke="#F6B52E"/>
        <path d="M165.255 337.425L134.076 318.857L134.513 282.595L163.961 300.145C163.934 300.234 163.908 300.352 163.906 300.494C163.892 301.658 164.577 302.727 165.667 303.158L165.255 337.425Z" stroke="#F6B52E"/>
        <path d="M164.868 265.374L164.454 299.79C164.246 299.878 164.025 299.991 163.83 300.119L134.355 282.553L164.868 265.374Z" stroke="#F6B52E"/>
        <path d="M133.55 319.226L164.844 337.794L150.678 345.681L150.675 345.682L133.111 355.608L101.932 337.04L115.984 329.152L115.985 329.151L133.55 319.226Z" stroke="#F6B52E"/>
        <path d="M163.606 374.836L133.776 391.655L134.198 356.569L163.646 374.12C163.62 374.209 163.593 374.327 163.591 374.468L163.591 374.485C163.59 374.588 163.588 374.709 163.606 374.836Z" stroke="#F6B52E"/>
        <path d="M196.661 247.231L196.225 283.494L165.232 300.98C165.041 300.847 164.822 300.729 164.616 300.636L165.045 265.043L196.661 247.231Z" stroke="#F6B52E"/>
        <path d="M33.3893 227.007C33.4039 225.799 32.6781 224.856 31.6275 224.372L32.0403 190.075L63.2189 208.643L62.7825 244.906L33.3339 227.355C33.3607 227.266 33.3876 227.148 33.3893 227.007Z" stroke="#F6B52E"/>
        <path d="M32.4651 262.731L32.8793 228.315C33.0873 228.227 33.3088 228.114 33.5033 227.986L62.9787 245.552L32.4651 262.731Z" stroke="#F6B52E"/>
        <path d="M64.2309 171.743L95.4111 190.195L63.794 208.007L32.5002 189.439L47.7484 180.967L47.7498 180.967L64.2309 171.743Z" stroke="#F6B52E"/>
        <path d="M32.0543 188.908L32.4922 152.525L64.2269 134.828L63.7904 171.095L32.0543 188.908Z" stroke="#F6B52E"/>
        <path d="M-1.66098 90.7636L-1.22309 54.3821L30.392 36.6861L29.9555 72.9517L-1.66098 90.7636Z" stroke="#F6B52E"/>
        <path d="M30.0984 225.458L-0.464382 207.232L-0.0359871 171.639C0.172009 171.551 0.393397 171.439 0.587935 171.31L31.1507 189.537L30.7223 225.13C30.5143 225.218 30.2929 225.33 30.0984 225.458Z" stroke="#F6B52E"/>
        <path d="M0.587822 281.717L1.02428 245.454L32.0169 227.968C32.2083 228.101 32.4269 228.219 32.6327 228.312L32.2042 263.91L31.85 264.117L0.587822 281.717Z" stroke="#F6B52E"/>
        <path d="M-0.30032 355.526L0.137562 319.144L31.7526 301.448L31.3161 337.714L-0.30032 355.526Z" stroke="#F6B52E"/>
        <path d="M32.1967 264.546L31.7603 300.809L0.143787 318.621L0.580241 282.358L32.1967 264.546Z" stroke="#F6B52E"/>
        <path d="M-0.321124 355.254L-32.0572 373.067L-31.6388 338.307C-30.6539 337.906 -29.8513 336.904 -29.815 335.749L0.115354 318.989L-0.321124 355.254Z" stroke="#F6B52E"/>
        <path d="M30.8724 374.53L30.436 410.794L-0.862146 392.223L-0.42568 355.959L30.8724 374.53Z" stroke="#F6B52E"/>
        <path d="M63.2973 320.023L62.8704 355.496C62.6624 355.584 62.441 355.697 62.2465 355.825L31.6837 337.599L32.1187 301.455L63.2973 320.023Z" stroke="#F6B52E"/>
        <path d="M63.305 319.383L32.0069 300.812L32.4434 264.548L63.7415 283.119L63.305 319.383Z" stroke="#F6B52E"/>
        <path d="M63.5473 282.473L32.2522 263.904L64.0234 246.186L64.3613 246.326L95.1665 264.66L63.5473 282.473Z" stroke="#F6B52E"/>
        <path d="M132.994 282.52L102.16 264.17L133.776 246.474L165.072 264.927L133.689 282.528L133.689 282.528L133.682 282.533L133.339 282.733L133.001 282.524L133.001 282.524L132.994 282.52Z" stroke="#F6B52E"/>
        <path d="M102.289 336.55L102.725 300.285L134.342 282.473L133.904 318.855L102.289 336.55Z" stroke="#F6B52E"/>
        <path d="M101.523 374.176L101.086 410.442L69.47 428.254L69.9079 391.872L101.523 374.176Z" stroke="#F6B52E"/>
        <path d="M133.019 392.369L101.841 373.802L102.277 337.536L133.457 355.988L133.019 392.369Z" stroke="#F6B52E"/>
        <path d="M164.648 375.527L164.235 409.826L134.145 392.033L164.032 375.183C164.223 375.316 164.442 375.434 164.648 375.527Z" stroke="#F6B52E"/>
        <path d="M166.588 375.228L166.589 375.2L166.586 375.173C166.477 374.07 165.818 373.017 164.827 372.578L165.239 338.297L196.418 356.864L195.982 393.127L166.533 375.577C166.56 375.488 166.587 375.37 166.588 375.228Z" stroke="#F6B52E"/>
        <path d="M227.904 412.006L196.289 429.702L196.726 393.437L228.341 375.741L227.904 412.006Z" stroke="#F6B52E"/>
        <path d="M260.099 358.083L259.663 394.347L227.927 412.159L228.363 375.895L260.099 358.083Z" stroke="#F6B52E"/>
        <path d="M290.716 376.028L260.127 357.786L260.563 321.523L291.742 340.09L291.314 375.692C291.104 375.79 290.903 375.91 290.716 376.028Z" stroke="#F6B52E"/>
    </g>
</svg>
