<svg xmlns="http://www.w3.org/2000/svg" display="none">
    <symbol id="mail" viewBox="0 0 24 25">
        <path d="M20 5.2334H4C3.44772 5.2334 3 5.68111 3 6.2334V18.2334C3 18.7857 3.44772 19.2334 4 19.2334H20C20.5523 19.2334 21 18.7857 21 18.2334V6.2334C21 5.68111 20.5523 5.2334 20 5.2334Z"
              stroke-width="2" stroke-linecap="round" stroke-linejoin="round"/>
        <path d="M3 8.2334L12 13.2334L21 8.2334" stroke-width="2" stroke-linecap="round" stroke-linejoin="round"/>
    </symbol>

    <symbol id="telegram" viewBox="0 0 24 24">
        <path d="M12 0C5.37058 0 0 5.37135 0 12C0 18.6286 5.37135 24 12 24C18.6294 24 24 18.6286 24 12C24 5.37135 18.6286 0 12 0ZM17.8939 8.22116L15.9244 17.5022C15.7788 18.1603 15.3871 18.3197 14.8405 18.0101L11.8405 15.799L10.3935 17.1925C10.2341 17.352 10.0986 17.4875 9.7889 17.4875L10.0018 14.4341L15.5613 9.4111C15.8036 9.19819 15.5079 9.07742 15.1881 9.29032L8.31716 13.6157L5.35587 12.6914C4.71252 12.4885 4.69781 12.048 5.49135 11.7383L17.0609 7.27665C17.5982 7.0831 18.0674 7.40748 17.8932 8.22039L17.8939 8.22116Z"/>
    </symbol>

    <symbol id="vk" viewBox="0 0 24 24">
        <path fill-rule="evenodd" clip-rule="evenodd"
              d="M12 24C18.6274 24 24 18.6274 24 12C24 5.37258 18.6274 0 12 0C5.37258 0 0 5.37258 0 12C0 18.6274 5.37258 24 12 24ZM19.5209 17.0518C19.2022 16.4036 17.908 15.0072 17.908 15.0072C16.7144 13.7857 16.7144 13.704 17.8379 12.0943L18.3912 11.2961C19.6306 9.46142 19.7099 8.85652 19.6428 8.65822C19.6047 8.53324 19.4019 8.48492 19.1062 8.48492H16.3912C16.3255 8.48406 16.2606 8.50064 16.2021 8.53324C16.1269 8.58226 16.0627 8.70477 16.0368 8.7542C16.0354 8.75687 16.0341 8.75932 16.0329 8.76154C15.7779 9.49221 15.4747 10.2017 15.1259 10.8845C13.9947 13.0058 13.577 13.0058 13.4383 13.0058C13.3768 13.0056 13.3166 12.9865 13.2645 12.9508C12.8661 12.6633 12.8833 11.9644 12.8986 11.3473L12.8987 11.3428C12.8987 11.2843 12.8999 11.2277 12.9011 11.1728C12.9022 11.1213 12.9032 11.0713 12.9032 11.0228C12.9032 10.5629 12.917 10.173 12.9307 9.82803C12.9749 8.61323 12.9642 8.25829 12.4612 8.12665C12.2127 8.05832 12.0358 8.01 11.3498 8H10.9977C10.365 8 9.72782 8.02833 9.37415 8.22163C9.25382 8.28753 9.14977 8.38412 9.07079 8.50325C9.26592 8.54324 9.58757 8.65156 9.77661 8.93651C10.0403 9.32978 10.0419 10.1496 10.0419 10.228C10.0647 10.6446 10.1608 12.6526 9.6455 12.9658C9.58036 13.0043 9.50764 13.0249 9.43361 13.0258C9.03878 13.0258 8.54638 12.3993 7.743 10.8562C7.30246 10.0146 7.01499 9.25596 6.89881 8.94937C6.88434 8.91116 6.87252 8.87998 6.86339 8.85652C6.79327 8.67489 6.69266 8.46992 6.38472 8.46992H4.07519C3.81756 8.46992 3.58127 8.63156 3.6956 8.93318C3.71084 8.9765 5.52493 13.6391 7.54025 15.9637C9.18665 17.8617 11.0449 17.9983 11.4017 17.9983H12.449C12.6426 17.9983 12.917 17.78 12.917 17.4001C12.917 16.1836 13.292 15.727 13.5847 15.6237C13.6314 15.6071 13.6803 15.5986 13.7295 15.5987C14.1167 15.5987 14.5009 16.0853 14.9445 16.6486L14.9461 16.6507C15.2429 17.0283 15.5472 17.4155 15.8561 17.6517C16.2585 17.955 16.5909 18 16.7494 18H19.0361C19.1611 17.99 19.527 17.8767 19.6337 17.6467C19.6977 17.5084 19.6672 17.3234 19.5376 17.0852C19.537 17.0837 19.5362 17.082 19.5354 17.08C19.5324 17.0728 19.528 17.0623 19.5209 17.0518Z"/>
    </symbol>

    <symbol id="fb" viewBox="0 0 24 24">
        <path d="M24 12.0733C24 5.40541 18.6274 0 12 0C5.37258 0 0 5.40541 0 12.0733C0 18.0995 4.38822 23.0943 10.125 24V15.5633H7.07813V12.0733H10.125V9.41342C10.125 6.38755 11.9165 4.71614 14.6576 4.71614C15.9705 4.71614 17.3438 4.95195 17.3438 4.95195V7.92312H15.8306C14.3399 7.92312 13.875 8.85379 13.875 9.80857V12.0733H17.2031L16.6711 15.5633H13.875V24C19.6118 23.0943 24 18.0995 24 12.0733Z"/>
    </symbol>

    <symbol id="instagram" viewBox="0 0 24 24">
        <g>
            <path fill-rule="evenodd" clip-rule="evenodd"
                  d="M12.0201 -0.0400391C8.75561 -0.0400391 8.34628 -0.0262028 7.06421 0.0322934C5.78481 0.0906409 4.91104 0.293856 4.14645 0.590977C3.35602 0.89816 2.6857 1.30916 2.01745 1.97739C1.34921 2.64566 0.938213 3.316 0.631029 4.10642C0.333909 4.87098 0.130707 5.74478 0.072319 7.02417C0.0138362 8.30624 0 8.71558 0 11.98C0 15.2445 0.0138362 15.6538 0.072319 16.9359C0.130707 18.2153 0.333909 19.0891 0.631029 19.8536C0.938213 20.644 1.34921 21.3144 2.01745 21.9827C2.6857 22.6509 3.35602 23.0619 4.14645 23.3691C4.91104 23.6662 5.78481 23.8694 7.06421 23.9278C8.34628 23.9862 8.75561 24.0001 12.0201 24.0001C15.2845 24.0001 15.6939 23.9862 16.9759 23.9278C18.2553 23.8694 19.1291 23.6662 19.8937 23.3691C20.6841 23.0619 21.3544 22.6509 22.0227 21.9827C22.6909 21.3144 23.1019 20.644 23.4091 19.8536C23.7062 19.0891 23.9094 18.2153 23.9678 16.9359C24.0263 15.6538 24.0401 15.2445 24.0401 11.98C24.0401 8.71558 24.0263 8.30624 23.9678 7.02417C23.9094 5.74478 23.7062 4.87098 23.4091 4.10642C23.1019 3.316 22.6909 2.64566 22.0227 1.97739C21.3544 1.30916 20.6841 0.89816 19.8937 0.590977C19.1291 0.293856 18.2553 0.0906409 16.9759 0.0322934C15.6939 -0.0262028 15.2845 -0.0400391 12.0201 -0.0400391ZM12.0201 2.12573C15.2295 2.12573 15.6097 2.138 16.8772 2.19583C18.0491 2.24927 18.6856 2.44509 19.1092 2.6097C19.6702 2.82774 20.0706 3.08822 20.4912 3.50881C20.9119 3.92946 21.1723 4.32987 21.3904 4.89093C21.555 5.31449 21.7508 5.95094 21.8043 7.12288C21.8621 8.39035 21.8744 8.77054 21.8744 11.98C21.8744 15.1895 21.8621 15.5697 21.8043 16.8372C21.7508 18.0091 21.555 18.6456 21.3904 19.0691C21.1723 19.6302 20.9119 20.0306 20.4912 20.4512C20.0706 20.8718 19.6702 21.1323 19.1092 21.3503C18.6856 21.515 18.0491 21.7108 16.8772 21.7642C15.6099 21.8221 15.2298 21.8343 12.0201 21.8343C8.81034 21.8343 8.43025 21.8221 7.16293 21.7642C5.99098 21.7108 5.35453 21.515 4.93097 21.3503C4.36991 21.1323 3.9695 20.8718 3.54889 20.4512C3.12829 20.0306 2.86778 19.6302 2.64974 19.0691C2.48512 18.6456 2.28933 18.0091 2.23586 16.8372C2.17802 15.5697 2.16577 15.1895 2.16577 11.98C2.16577 8.77054 2.17802 8.39035 2.23586 7.12288C2.28933 5.95094 2.48512 5.31449 2.64974 4.89093C2.86778 4.32987 3.12827 3.92946 3.54888 3.50885C3.9695 3.08822 4.36991 2.82774 4.93097 2.6097C5.35453 2.44509 5.99098 2.24927 7.16293 2.19583C8.43039 2.138 8.81058 2.12573 12.0201 2.12573ZM12.0201 15.9868C9.80728 15.9868 8.01344 14.1929 8.01344 11.9801C8.01344 9.76724 9.80728 7.9734 12.0201 7.9734C14.233 7.9734 16.0268 9.76724 16.0268 11.9801C16.0268 14.1929 14.233 15.9868 12.0201 15.9868ZM12.0201 5.80762C8.61114 5.80762 5.84766 8.5711 5.84766 11.9801C5.84766 15.3891 8.61114 18.1525 12.0201 18.1525C15.4291 18.1525 18.1926 15.3891 18.1926 11.9801C18.1926 8.5711 15.4291 5.80762 12.0201 5.80762ZM18.4365 7.00639C19.2331 7.00639 19.8789 6.36064 19.8789 5.56401C19.8789 4.76738 19.2331 4.12158 18.4365 4.12158C17.6399 4.12158 16.9941 4.76738 16.9941 5.56401C16.9941 6.36064 17.6399 7.00639 18.4365 7.00639Z"/>
        </g>
    </symbol>

    <symbol id="youtube" viewBox="0 0 35 24">
        <path d="M13.7141 17.1428V6.85707L22.6215 12L13.7141 17.1428ZM33.569 3.74757C33.1747 2.27254 32.0131 1.11071 30.538 0.716475C27.8641 6.10347e-08 17.1427 0 17.1427 0C17.1427 0 6.4214 6.10347e-08 3.74758 0.716475C2.27254 1.11071 1.11071 2.27254 0.716475 3.74757C0 6.4214 0 11.9999 0 11.9999C0 11.9999 0 17.5786 0.716475 20.2523C1.11071 21.7272 2.27254 22.8892 3.74758 23.2833C6.4214 24 17.1427 24 17.1427 24C17.1427 24 27.8641 24 30.538 23.2833C32.0131 22.8892 33.1747 21.7272 33.569 20.2523C34.2855 17.5786 34.2855 11.9999 34.2855 11.9999C34.2855 11.9999 34.2855 6.4214 33.569 3.74757Z"/>
    </symbol>

    <symbol id="twitter" viewBox="0 0 25 24">
        <path d="M12.2852 0C5.65837 0 0.285156 5.37321 0.285156 12C0.285156 18.6268 5.65837 24 12.2852 24C18.9119 24 24.2852 18.6268 24.2852 12C24.2852 5.37321 18.9119 0 12.2852 0ZM18.0521 9.04554C18.0602 9.17143 18.0602 9.30268 18.0602 9.43125C18.0602 13.3634 15.0655 17.8929 9.59319 17.8929C7.90569 17.8929 6.34141 17.4027 5.02355 16.5589C5.26462 16.5857 5.49498 16.5964 5.74141 16.5964C7.13426 16.5964 8.41462 16.125 9.43516 15.3268C8.12801 15.3 7.0298 14.4429 6.6548 13.2643C7.11283 13.3313 7.52533 13.3313 7.99676 13.2107C7.32371 13.074 6.71875 12.7084 6.28466 12.1762C5.85058 11.644 5.61414 10.9779 5.61551 10.2911V10.2536C6.00926 10.4759 6.47266 10.6125 6.95748 10.6313C6.54991 10.3596 6.21567 9.99164 5.98438 9.5599C5.7531 9.12817 5.63192 8.64603 5.63159 8.15625C5.63159 7.60179 5.77623 7.09554 6.03605 6.65625C6.78311 7.5759 7.71533 8.32806 8.77212 8.86384C9.8289 9.39961 10.9866 9.70702 12.17 9.76607C11.7494 7.74375 13.2602 6.10714 15.0762 6.10714C15.9334 6.10714 16.7048 6.46607 17.2485 7.04464C17.9209 6.91875 18.5637 6.66696 19.1369 6.32946C18.9146 7.01786 18.4485 7.59911 17.8298 7.96607C18.4298 7.90179 19.0084 7.73571 19.5441 7.50268C19.1396 8.09732 18.6334 8.625 18.0521 9.04554Z"/>
    </symbol>

    <symbol id="close" viewBox="0 0 24 24">
        <path d="M19 19L5 5" stroke-width="2" stroke-linecap="round" stroke-linejoin="round"/>
        <path d="M19 5L5 19" stroke-width="2" stroke-linecap="round" stroke-linejoin="round"/>
    </symbol>

    <symbol id="arrow" viewBox="0 0 24 24">
        <path d="M10 19L3 12L10 5" stroke-width="2" stroke-linecap="round" stroke-linejoin="round"/>
        <path d="M3 12H21" stroke-width="2" stroke-linecap="round" stroke-linejoin="round"/>
    </symbol>

</svg>