<svg xmlns="http://www.w3.org/2000/svg" display="none">

    <symbol id="icon1" viewBox="0 0 64 64">
        <path d="M31.3376 6.7889C31.1743 6.78444 30.4958 6.79018 30.4569 6.79146C17.0826 7.05612 6.26832 17.9291 6.10123 31.3269C6.02853 31.4615 5.98389 31.6133 5.98389 31.7772C5.98389 31.9468 6.03172 32.1031 6.10889 32.2408C6.42648 45.506 17.1796 56.2246 30.4575 56.4868C30.5544 56.4899 30.6507 56.4995 30.7483 56.4995C30.7738 56.4995 30.7987 56.4963 30.8242 56.4963C30.8676 56.4963 30.9103 56.4995 30.9537 56.4995C44.6614 56.4995 55.8131 45.3478 55.8131 31.6394C55.8137 18.0605 44.8687 6.99617 31.3376 6.7889ZM53.8795 30.8206H44.7794C44.6162 21.4884 41.6825 13.6071 37.3471 9.60584C46.6461 12.3086 53.5236 20.746 53.8795 30.8206ZM29.997 8.74105V30.8206H18.6304C18.8505 19.0197 23.8007 9.46107 29.997 8.74105ZM29.997 32.7332V54.5378C23.8491 53.8229 18.9251 44.4078 18.6343 32.7332H29.997ZM31.9103 54.4785V32.7332H42.8623C42.5779 44.147 37.8662 53.4026 31.9103 54.4785ZM31.9103 30.8206V8.80036C37.9134 9.88517 42.6506 19.2818 42.8662 30.8206H31.9103ZM23.9505 9.78951C19.7242 13.8462 16.8779 21.6312 16.7172 30.8206H8.02723C8.37544 20.9673 14.9615 12.6772 23.9505 9.78951ZM8.03425 32.7332H16.7217C16.9334 41.8032 19.7669 49.4734 23.9512 53.4893C15.0444 50.6284 8.49343 42.4665 8.03425 32.7332ZM37.3471 53.673C41.6398 49.7107 44.5607 41.9461 44.7756 32.7332H53.8724C53.4031 42.6865 46.5619 50.9951 37.3471 53.673Z"/>

    </symbol>

    <symbol id="icon2" viewBox="0 0 64 64">
        <path d="M26.3487 17.6384L25.1648 24.512C25.1025 24.8347 25.1332 25.1684 25.2533 25.4744C25.3734 25.7803 25.578 26.0458 25.8432 26.24C26.104 26.4352 26.4142 26.5537 26.7387 26.582C27.0633 26.6103 27.3893 26.5472 27.68 26.4L34.08 23.2L40.1472 26.3616C40.4368 26.5177 40.7645 26.5892 41.0929 26.5679C41.4212 26.5466 41.737 26.4334 42.004 26.2411C42.271 26.0489 42.4786 25.7853 42.6029 25.4807C42.7273 25.1761 42.7634 24.8426 42.7072 24.5184L41.5232 17.6704L46.5024 12.8C46.7364 12.5726 46.9022 12.2843 46.9808 11.9676C47.0594 11.6509 47.0477 11.3185 46.9471 11.0081C46.8465 10.6977 46.661 10.4216 46.4116 10.2112C46.1622 10.0008 45.8589 9.86444 45.536 9.81757L38.592 8.80637L35.4944 2.55998C35.3476 2.26906 35.1223 2.025 34.8441 1.85536C34.5659 1.68572 34.2458 1.59726 33.92 1.59998C33.5952 1.59846 33.2764 1.68748 32.9995 1.85705C32.7225 2.02663 32.4983 2.27004 32.352 2.55998V2.55998L29.248 8.80637L22.3039 9.80477C21.9779 9.8488 21.6708 9.98401 21.4182 10.1949C21.1655 10.4057 20.9776 10.6836 20.8759 10.9966C20.7743 11.3095 20.7631 11.6448 20.8436 11.9639C20.9242 12.2829 21.0932 12.5727 21.3312 12.8L26.3487 17.6384ZM30.016 10.6368C30.1666 10.6116 30.309 10.5509 30.4315 10.4596C30.5539 10.3683 30.6528 10.2491 30.72 10.112L33.92 3.71198L37.12 10.112C37.1889 10.2515 37.2908 10.3722 37.4168 10.4636C37.5428 10.5551 37.6891 10.6145 37.8432 10.6368L44.9344 11.6608L39.8144 16.6144C39.7017 16.7226 39.6172 16.8567 39.5681 17.0051C39.519 17.1534 39.5069 17.3115 39.5328 17.4656L40.7424 24.4736L34.5408 21.2416C34.4051 21.1719 34.2548 21.1356 34.1024 21.1356C33.9499 21.1356 33.7996 21.1719 33.664 21.2416L27.136 24.5184L28.352 17.4784C28.3733 17.3247 28.3571 17.1682 28.3047 17.0222C28.2523 16.8762 28.1653 16.745 28.0512 16.64L22.9312 11.6864L30.016 10.6368Z"/>
        <path d="M60.8 30.08C60.4785 29.7086 60.0869 29.4044 59.6476 29.1848C59.2083 28.9651 58.73 28.8344 58.24 28.8C57.7501 28.7663 57.2585 28.8317 56.7945 28.9922C56.3304 29.1528 55.9035 29.4052 55.5392 29.7344L46.6752 37.696C46.6521 37.5191 46.6179 37.3438 46.5728 37.1712C46.4239 36.6167 46.1569 36.1008 45.7902 35.659C45.4234 35.2172 44.9656 34.8597 44.448 34.6112C42.8032 33.92 40.5184 34.24 38.3104 34.56C37.019 34.8128 35.6999 34.8946 34.3872 34.8032C33.803 34.6566 33.238 34.4418 32.704 34.1632C31.0272 33.4144 28.7296 32.3904 24.4544 33.3312C22.2472 33.9013 20.2197 35.0196 18.56 36.5824V34.24C18.56 33.9854 18.4589 33.7412 18.2788 33.5612C18.0988 33.3811 17.8546 33.28 17.6 33.28H9.28001C9.0254 33.28 8.78122 33.3811 8.60118 33.5612C8.42115 33.7412 8.32001 33.9854 8.32001 34.24V52.8C8.32001 53.0546 8.42115 53.2988 8.60118 53.4788C8.78122 53.6588 9.0254 53.76 9.28001 53.76H17.6C17.8546 53.76 18.0988 53.6588 18.2788 53.4788C18.4589 53.2988 18.56 53.0546 18.56 52.8V51.4688C19.84 51.7696 25.6512 53.12 29.9456 53.12C34.4256 53.12 39.904 52.096 43.2768 50.6304C49.4912 47.936 59.7248 36.3072 60.5568 35.3664C61.2776 34.6903 61.7063 33.7598 61.7518 32.7726C61.7972 31.7854 61.4557 30.8194 60.8 30.08V30.08ZM16.64 51.84H10.24V35.2H16.64V51.84ZM59.2256 33.9776L59.136 34.0672C59.0272 34.1888 48.4544 46.2976 42.496 48.8768C39.36 50.24 34.1888 51.2 29.9456 51.2C25.4656 51.2 18.8544 49.5616 18.7904 49.5488C18.7139 49.5395 18.6365 49.5395 18.56 49.5488V39.3088C19.2576 38.5088 21.7216 35.9104 24.8704 35.2192C28.5312 34.4192 30.336 35.2192 31.9104 35.9296C32.5896 36.2642 33.3076 36.5135 34.048 36.672C35.5595 36.8146 37.0836 36.7369 38.5728 36.4416C40.4352 36.1856 42.5472 35.8912 43.6928 36.3712C43.9391 36.5128 44.1545 36.7024 44.326 36.9289C44.4975 37.1554 44.6217 37.4141 44.6912 37.6896C44.7842 38.0674 44.7856 38.4619 44.6955 38.8404C44.6053 39.2188 44.4261 39.5703 44.1728 39.8656C42.7136 41.824 33.8368 44.7552 30.1952 44.4672C29.9406 44.4477 29.6887 44.5301 29.4948 44.6963C29.301 44.8626 29.1811 45.099 29.1616 45.3536C29.1421 45.6082 29.2245 45.8601 29.3907 46.054C29.557 46.2478 29.7934 46.3677 30.048 46.3872C30.2464 46.3872 30.464 46.3872 30.688 46.3872C34.6624 46.3872 42.2528 44.0448 45.0304 41.7024L45.1008 41.664L56.7744 31.168C57.1252 30.8555 57.5853 30.6945 58.0544 30.72C58.2999 30.7349 58.5398 30.7992 58.7598 30.9092C58.9798 31.0192 59.1752 31.1725 59.3344 31.36C59.6631 31.7234 59.8358 32.2014 59.8155 32.691C59.7951 33.1806 59.5833 33.6427 59.2256 33.9776V33.9776Z"/>
    </symbol>

    <symbol id="icon3" viewBox="0 0 64 64">
        <path d="M11.574 44.9125C11.574 48.109 14.1746 50.7103 17.3718 50.7103C20.5689 50.7103 23.1696 48.109 23.1696 44.9125C23.1696 41.716 20.5689 39.1147 17.3718 39.1147C14.1746 39.1147 11.574 41.7153 11.574 44.9125ZM21.2639 44.9125C21.2639 47.0583 19.5176 48.8046 17.3718 48.8046C15.2259 48.8046 13.4797 47.0583 13.4797 44.9125C13.4797 42.7667 15.2259 41.0204 17.3718 41.0204C19.5176 41.0204 21.2639 42.7667 21.2639 44.9125Z"/>
        <path d="M57.3104 23.261C56.9178 22.911 56.3162 22.9447 55.9649 23.3373L42.125 38.8389L35.0002 31.7141C34.628 31.3419 34.0252 31.3419 33.6529 31.7141C33.2807 32.0864 33.2807 32.6892 33.6529 33.0615L41.4911 40.899C41.6702 41.0781 41.9122 41.1779 42.1651 41.1779C42.174 41.1779 42.1828 41.1779 42.1917 41.1772C42.4535 41.1696 42.7012 41.0553 42.8759 40.8596L57.3872 24.6058C57.7372 24.2139 57.7029 23.6111 57.3104 23.261Z"/>
        <path d="M42.4934 43.5607C41.9668 43.5607 41.5406 43.9875 41.5406 44.5135V53.9957H7.80067V9.52918H41.5406V29.4927C41.5406 30.0187 41.9668 30.4456 42.4934 30.4456C43.02 30.4456 43.4463 30.0187 43.4463 29.4927V8.57633C43.4463 8.05035 43.02 7.62347 42.4934 7.62347H6.84781C6.3212 7.62347 5.89496 8.05035 5.89496 8.57633V54.9485C5.89496 55.4745 6.3212 55.9014 6.84781 55.9014H42.4934C43.02 55.9014 43.4463 55.4745 43.4463 54.9485V44.5135C43.4463 43.9875 43.02 43.5607 42.4934 43.5607Z"/>
        <path d="M31.3553 20.4711C31.8819 20.4711 32.3081 20.0442 32.3081 19.5182C32.3081 18.9922 31.8819 18.5654 31.3553 18.5654H12.2118C11.6852 18.5654 11.259 18.9922 11.259 19.5182C11.259 20.0442 11.6852 20.4711 12.2118 20.4711H31.3553Z"/>
        <path d="M32.5426 27.9948C32.5426 27.4689 32.1163 27.042 31.5897 27.042H12.4513C11.9247 27.042 11.4985 27.4689 11.4985 27.9948C11.4985 28.5208 11.9247 28.9477 12.4513 28.9477H31.5897C32.1163 28.9477 32.5426 28.5208 32.5426 27.9948Z"/>
    </symbol>

    <symbol id="icon4" viewBox="0 0 64 64">
        <path d="M24.5668 29.9994C23.7907 30.5096 22.9113 31.0887 21.9374 31.854C21.822 31.9375 19.104 33.926 17.9911 35.7819C16.8732 37.6473 16.5097 40.7066 16.4944 40.8361C16.4631 41.1072 16.5492 41.3788 16.731 41.5823C16.9127 41.7857 17.1723 41.9024 17.4452 41.9024H29.3773C29.906 41.9024 30.3339 41.4739 30.3339 40.9458C30.3339 40.4177 29.906 39.9892 29.3773 39.9892H18.5676C18.7488 39.0447 19.0855 37.6779 19.632 36.766C20.389 35.5038 22.3647 33.9094 23.0911 33.3801C24.0299 32.6429 24.8736 32.0874 25.6185 31.5976C27.5687 30.3144 29.1088 29.301 29.1088 26.7035C29.1088 23.2876 26.3295 20.5083 22.9138 20.5083C19.4968 20.5083 16.7163 23.287 16.7163 26.7035C16.7163 27.2322 17.1442 27.6601 17.6729 27.6601C18.2016 27.6601 18.6295 27.2322 18.6295 26.7035C18.6295 24.3425 20.5516 22.4216 22.9138 22.4216C25.2747 22.4216 27.1956 24.3425 27.1956 26.7035C27.1956 28.1984 26.5636 28.685 24.5668 29.9994Z"/>
        <path d="M41.0677 42.0133C41.5957 42.0133 42.0243 41.5848 42.0243 41.0567V36.5465H44.8265C45.3545 36.5465 45.7831 36.1179 45.7831 35.5899C45.7831 35.0618 45.3545 34.6332 44.8265 34.6332H42.0243V21.5765C42.0243 21.1524 41.7449 20.7793 41.3387 20.6594C40.9325 20.5395 40.4943 20.7015 40.2641 21.0573L31.2076 35.0701C31.0176 35.3647 31.0036 35.7391 31.1706 36.0465C31.3377 36.3539 31.6604 36.5459 32.0105 36.5459H40.1111V41.0561C40.1111 41.5848 40.5396 42.0133 41.0677 42.0133ZM33.7681 34.6332L40.1111 24.8188V34.6332H33.7681Z"/>
        <path d="M62.7647 27.6244C62.361 27.2838 61.7564 27.3355 61.4172 27.7392L59.7367 29.7328C58.6283 14.4273 45.8303 2.31122 30.2472 2.31122C13.939 2.31122 0.670898 15.5791 0.670898 31.8871C0.670898 48.1958 13.939 61.463 30.2472 61.463C40.6939 61.463 50.163 56.1186 55.5761 47.1671C55.8497 46.7149 55.705 46.1269 55.2528 45.8533C54.8013 45.5791 54.2127 45.7245 53.9391 46.1767C48.8755 54.5504 40.0186 59.5497 30.2472 59.5497C14.9938 59.5497 2.58411 47.1403 2.58411 31.8871C2.58411 16.6339 14.9938 4.22448 30.2472 4.22448C44.8973 4.22448 56.9173 15.6735 57.8458 30.0931L55.7031 28.3036C55.2962 27.9643 54.6942 28.0198 54.3555 28.4247C54.0169 28.8304 54.0711 29.4337 54.476 29.7723L58.2814 32.9502C58.4606 33.0995 58.6781 33.1728 58.8943 33.1728C59.1666 33.1728 59.4376 33.0568 59.6258 32.8329L62.8795 28.9732C63.22 28.5689 63.169 27.9649 62.7647 27.6244Z"/>
    </symbol>

    <symbol id="icon5" viewBox="0 0 64 64">
        <path d="M55.2832 32.4352C55.2832 32.4352 55.2832 32.3776 55.3152 32.352C55.3169 32.32 55.3169 32.288 55.3152 32.256C55.3152 32.256 55.3152 32.1984 55.3152 32.1728C55.3152 32.1472 55.3152 32.1088 55.3152 32.0768C55.3152 32.0448 55.3152 32.0192 55.3152 31.9872C55.3152 31.9552 55.3152 31.9296 55.3152 31.8976C55.3167 31.8677 55.3167 31.8378 55.3152 31.808C55.3152 31.808 55.3152 31.7504 55.2832 31.7184L55.2448 31.6352L55.1872 31.5456L55.1488 31.488C53.1524 29.062 50.9064 26.8525 48.448 24.896C43.0208 20.5376 37.4464 18.24 32.32 18.24C18.6944 18.24 9.22244 30.9632 8.82564 31.5008V31.5456L8.77444 31.6288L8.73604 31.712V31.7952C8.73439 31.8272 8.73439 31.8592 8.73604 31.8912C8.73604 31.8912 8.73604 31.9488 8.73604 31.9808C8.73604 32.0128 8.73604 32.0448 8.73604 32.0768C8.73604 32.1088 8.73604 32.1408 8.73604 32.1664C8.73604 32.192 8.73604 32.224 8.73604 32.256C8.73461 32.2858 8.73461 32.3157 8.73604 32.3456V32.4352L8.77444 32.5184L8.82564 32.608V32.6464C9.22244 33.184 18.6944 45.7664 32.32 45.7664C37.44 45.7664 43.0208 43.4944 48.4544 39.1936C50.9124 37.2509 53.1584 35.0542 55.1552 32.64L55.1936 32.576L55.2512 32.4928L55.2832 32.4352ZM32.32 43.84C21.2608 43.84 12.8 34.4896 10.8224 32.064C12.8 29.6192 21.2416 20.16 32.32 20.16C42.24 20.16 51.008 29.5808 53.12 32.0704C51.008 34.56 42.24 43.84 32.32 43.84Z"/>
        <path d="M32 22.08C30.038 22.08 28.1201 22.6618 26.4888 23.7518C24.8574 24.8419 23.586 26.3912 22.8351 28.2038C22.0843 30.0164 21.8879 32.011 22.2706 33.9353C22.6534 35.8596 23.5982 37.6272 24.9855 39.0145C26.3729 40.4019 28.1404 41.3466 30.0647 41.7294C31.989 42.1122 33.9836 41.9157 35.7962 41.1649C37.6089 40.4141 39.1582 39.1426 40.2482 37.5113C41.3382 35.8799 41.92 33.962 41.92 32C41.9166 29.3701 40.8704 26.8489 39.0108 24.9893C37.1512 23.1296 34.6299 22.0834 32 22.08ZM32 40C30.4178 40 28.8711 39.5308 27.5555 38.6518C26.2399 37.7727 25.2145 36.5233 24.609 35.0615C24.0035 33.5997 23.8451 31.9911 24.1537 30.4393C24.4624 28.8874 25.2243 27.462 26.3432 26.3432C27.462 25.2243 28.8875 24.4624 30.4393 24.1537C31.9911 23.8451 33.5997 24.0035 35.0615 24.609C36.5233 25.2145 37.7727 26.2399 38.6518 27.5555C39.5308 28.871 40 30.4178 40 32C39.9966 34.1207 39.1527 36.1536 37.6531 37.6531C36.1536 39.1527 34.1207 39.9966 32 40Z"/>
        <path d="M10.24 20.16C10.4946 20.16 10.7388 20.0589 10.9189 19.8789C11.0989 19.6988 11.2 19.4546 11.2 19.2V11.2H19.2C19.4546 11.2 19.6988 11.0989 19.8789 10.9189C20.0589 10.7388 20.16 10.4946 20.16 10.24C20.16 9.98542 20.0589 9.74124 19.8789 9.56121C19.6988 9.38117 19.4546 9.28003 19.2 9.28003H10.24C9.98542 9.28003 9.74124 9.38117 9.56121 9.56121C9.38117 9.74124 9.28003 9.98542 9.28003 10.24V19.2C9.28003 19.4546 9.38117 19.6988 9.56121 19.8789C9.74124 20.0589 9.98542 20.16 10.24 20.16Z"/>
        <path d="M44.8 11.2H52.8V19.2C52.8 19.4546 52.9012 19.6988 53.0812 19.8789C53.2612 20.0589 53.5054 20.16 53.76 20.16C54.0146 20.16 54.2588 20.0589 54.4389 19.8789C54.6189 19.6988 54.72 19.4546 54.72 19.2V10.24C54.72 9.98542 54.6189 9.74124 54.4389 9.56121C54.2588 9.38117 54.0146 9.28003 53.76 9.28003H44.8C44.5454 9.28003 44.3012 9.38117 44.1212 9.56121C43.9412 9.74124 43.84 9.98542 43.84 10.24C43.84 10.4946 43.9412 10.7388 44.1212 10.9189C44.3012 11.0989 44.5454 11.2 44.8 11.2Z"/>
        <path d="M53.76 43.84C53.5054 43.84 53.2612 43.9412 53.0812 44.1212C52.9012 44.3012 52.8 44.5454 52.8 44.8V52.8H44.8C44.5454 52.8 44.3012 52.9012 44.1212 53.0812C43.9412 53.2612 43.84 53.5054 43.84 53.76C43.84 54.0146 43.9412 54.2588 44.1212 54.4389C44.3012 54.6189 44.5454 54.72 44.8 54.72H53.76C54.0146 54.72 54.2588 54.6189 54.4389 54.4389C54.6189 54.2588 54.72 54.0146 54.72 53.76V44.8C54.72 44.5454 54.6189 44.3012 54.4389 44.1212C54.2588 43.9412 54.0146 43.84 53.76 43.84Z"/>
        <path d="M19.2 52.8H11.2V44.8C11.2 44.5454 11.0989 44.3012 10.9189 44.1212C10.7388 43.9412 10.4946 43.84 10.24 43.84C9.98542 43.84 9.74124 43.9412 9.56121 44.1212C9.38117 44.3012 9.28003 44.5454 9.28003 44.8V53.76C9.28003 54.0146 9.38117 54.2588 9.56121 54.4389C9.74124 54.6189 9.98542 54.72 10.24 54.72H19.2C19.4546 54.72 19.6988 54.6189 19.8789 54.4389C20.0589 54.2588 20.16 54.0146 20.16 53.76C20.16 53.5054 20.0589 53.2612 19.8789 53.0812C19.6988 52.9012 19.4546 52.8 19.2 52.8Z"/>
        <path d="M32 27.2C31.0507 27.2 30.1226 27.4815 29.3333 28.009C28.5439 28.5364 27.9287 29.286 27.5654 30.1631C27.2021 31.0402 27.107 32.0053 27.2922 32.9364C27.4775 33.8676 27.9346 34.7228 28.6059 35.3941C29.2772 36.0654 30.1325 36.5226 31.0636 36.7078C31.9947 36.893 32.9598 36.7979 33.8369 36.4346C34.714 36.0713 35.4636 35.4561 35.9911 34.6668C36.5185 33.8774 36.8 32.9494 36.8 32C36.7983 30.7275 36.2921 29.5076 35.3923 28.6078C34.4924 27.708 33.2725 27.2017 32 27.2ZM32 34.88C31.4304 34.88 30.8736 34.7111 30.4 34.3946C29.9264 34.0782 29.5572 33.6284 29.3392 33.1021C29.1213 32.5759 29.0642 31.9968 29.1754 31.4382C29.2865 30.8795 29.5608 30.3663 29.9635 29.9635C30.3663 29.5608 30.8795 29.2865 31.4382 29.1754C31.9968 29.0642 32.5759 29.1213 33.1021 29.3392C33.6284 29.5572 34.0782 29.9264 34.3946 30.4C34.7111 30.8736 34.88 31.4304 34.88 32C34.88 32.7638 34.5766 33.4964 34.0365 34.0365C33.4964 34.5766 32.7638 34.88 32 34.88Z"/>
    </symbol>

    <symbol id="icon6" viewBox="0 0 64 64">
        <path d="M57.1372 9.55182H6.70324C6.17401 9.55182 5.74564 9.98083 5.74564 10.5094V41.9119C5.74564 42.4405 6.17401 42.8695 6.70324 42.8695H24.7273L23.8303 52.2879C23.8278 52.3166 23.831 52.3447 23.831 52.3734H19.0742C18.545 52.3734 18.1166 52.8024 18.1166 53.331C18.1166 53.8596 18.545 54.2886 19.0742 54.2886H45.7187C46.2479 54.2886 46.6763 53.8596 46.6763 53.331C46.6763 52.8024 46.2479 52.3734 45.7187 52.3734H40.4857C40.4857 52.3447 40.4889 52.3172 40.4863 52.2879L39.5893 42.8695H57.1372C57.6664 42.8695 58.0948 42.4405 58.0948 41.9119V10.5094C58.0948 9.98083 57.6658 9.55182 57.1372 9.55182ZM38.5698 52.3734H25.7456L26.6508 42.8695H37.6652L38.5698 52.3734ZM56.1796 40.9549H7.66085V11.4677H56.1796V40.9549Z"/>
        <path d="M42.5084 26.4777C42.4705 26.4505 42.4285 26.4295 42.384 26.4155C42.264 23.888 41.1805 21.5025 39.356 19.7493C39.8182 17.942 39.8567 16.4636 39.4479 15.4563C39.344 15.1731 39.1831 14.9142 38.9752 14.6956C38.7673 14.477 38.5167 14.3033 38.2391 14.1853C37.2495 13.7735 35.9311 14.049 34.3194 15.003C34.2202 15.0642 34.149 15.1619 34.1211 15.275C34.0933 15.3882 34.111 15.5077 34.1704 15.608C34.2298 15.7082 34.3263 15.7811 34.4389 15.8109C34.5516 15.8407 34.6714 15.8251 34.7727 15.7674C36.0911 14.9852 37.211 14.7156 37.8984 15.006C38.0669 15.0798 38.2184 15.1877 38.3433 15.3228C38.4682 15.4579 38.5638 15.6173 38.6242 15.7911C38.9205 16.5318 38.9057 17.6813 38.5946 19.0857C36.7109 17.6012 34.3521 16.8513 31.957 16.9756C29.5619 17.0998 27.2934 18.0897 25.5734 19.7612L25.5023 19.7464C22.0655 19.3671 19.6834 19.9271 19.1383 21.2425C19.0345 21.5175 18.9883 21.8109 19.0025 22.1044C19.0168 22.398 19.0912 22.6855 19.2213 22.9491C19.6805 24.0334 20.8685 25.263 22.5632 26.5044C22.5632 26.6347 22.5632 26.7621 22.5632 26.8955C22.5622 28.6225 23.0148 30.3194 23.8757 31.8166C23.8487 31.8574 23.8286 31.9024 23.8165 31.9499C23.0906 35.0697 23.452 37.1495 24.8386 37.8013C25.131 37.9363 25.4499 38.0041 25.7719 37.9998C26.8148 37.9998 28.065 37.3658 29.3746 36.314C31.2779 36.945 33.3279 36.9835 35.2535 36.4243C37.1791 35.8652 38.8897 34.7347 40.1589 33.1824L40.4374 33.212C40.8898 33.2476 41.3164 33.2653 41.7173 33.2653C43.972 33.2653 45.3823 32.7143 45.8296 31.6507C46.3777 30.2996 45.2104 28.4657 42.5084 26.4777ZM32.4706 17.8532C34.6295 17.8517 36.7169 18.6267 38.3517 20.0367C38.0987 20.8981 37.793 21.7431 37.4362 22.5669C37.3898 22.6753 37.3884 22.7977 37.4323 22.9072C37.4762 23.0166 37.5618 23.1042 37.6702 23.1505C37.7787 23.1969 37.9011 23.1983 38.0105 23.1544C38.12 23.1105 38.2075 23.0249 38.2539 22.9165C38.5818 22.1501 38.8553 21.4213 39.0746 20.73C40.515 22.2684 41.3708 24.263 41.4932 26.3669C41.6155 28.4709 40.9966 30.5512 39.7442 32.2462C37.8348 32.008 35.9508 31.5985 34.1149 31.0226C34.8053 30.0478 35.463 29.0197 36.0644 27.9739C36.2866 27.5887 36.5029 27.1947 36.7133 26.7888C36.7407 26.7372 36.7577 26.6808 36.7633 26.6227C36.7689 26.5645 36.763 26.5059 36.746 26.45C36.7289 26.3942 36.701 26.3422 36.6639 26.2972C36.6268 26.2521 36.5811 26.2148 36.5296 26.1874C36.478 26.1599 36.4216 26.1429 36.3635 26.1373C36.3053 26.1317 36.2467 26.1376 36.1908 26.1546C36.135 26.1717 36.083 26.1996 36.038 26.2367C35.9929 26.2738 35.9556 26.3195 35.9281 26.371C35.7237 26.7562 35.5104 27.1414 35.2941 27.5176C34.6589 28.6224 33.9667 29.6934 33.2202 30.7263C32.4953 30.4873 31.7536 30.2206 30.9952 29.9263C28.3499 28.9278 25.8264 27.6327 23.4728 26.0659C23.6808 23.8224 24.7184 21.7373 26.3825 20.2184C28.0466 18.6995 30.2176 17.8561 32.4706 17.8532ZM20.0271 22.5936C19.9457 22.4384 19.8964 22.2685 19.8822 22.0939C19.8679 21.9193 19.889 21.7436 19.9442 21.5773C20.2404 20.8811 21.8522 20.3211 24.8149 20.5641C23.6552 21.9679 22.9058 23.6647 22.6491 25.4674C21.3218 24.4512 20.3945 23.4587 20.0271 22.6024V22.5936ZM30.6693 30.7678C31.3359 31.0285 32.0025 31.2625 32.6632 31.4847C31.63 32.8672 30.4662 34.1471 29.1879 35.3067C27.5303 34.658 26.1008 33.5348 25.0785 32.0776C24.0561 30.6205 23.4862 28.8941 23.4402 27.1147C25.7161 28.5807 28.139 29.8051 30.6693 30.7678ZM25.2001 36.9895C24.3468 36.5866 24.1068 35.0489 24.5216 32.8239C25.5336 34.1761 26.872 35.2495 28.4117 35.9437C27.1377 36.9154 25.9822 37.3658 25.2001 36.9954V36.9895ZM32.4706 35.9259C31.6898 35.9278 30.9119 35.8282 30.1567 35.6296C31.4098 34.4537 32.5514 33.1644 33.5668 31.778C35.3621 32.3516 37.2011 32.7777 39.0657 33.052C38.2228 33.9584 37.2021 34.6813 36.0674 35.1758C34.9328 35.6702 33.7084 35.9256 32.4706 35.9259ZM44.9912 31.304C44.6564 32.104 43.1039 32.4891 40.7604 32.338C41.7166 30.8897 42.2736 29.2146 42.3751 27.4821C44.3453 29.0257 45.3437 30.4656 44.9912 31.304Z"/>
        <path d="M24.8238 25.1918C26.0768 25.9797 27.3814 26.6825 28.7286 27.2954C28.834 27.3356 28.9507 27.3343 29.0552 27.2917C29.1596 27.249 29.2439 27.1683 29.291 27.0658C29.3381 26.9633 29.3445 26.8467 29.3088 26.7397C29.2732 26.6327 29.1981 26.5433 29.099 26.4895C27.7886 25.8938 26.5197 25.2109 25.3008 24.4452C25.2014 24.3859 25.0829 24.3676 24.9703 24.3942C24.8577 24.4209 24.7599 24.4905 24.6978 24.5881C24.6356 24.6857 24.6141 24.8037 24.6376 24.917C24.6611 25.0303 24.7279 25.13 24.8238 25.1948V25.1918Z"/>
        <path d="M32.5416 27.5683C32.643 27.6278 32.7639 27.6447 32.8777 27.6152C32.9916 27.5858 33.0891 27.5125 33.149 27.4113C33.3712 27.038 33.5875 26.6558 33.7978 26.2765C34.7136 24.6192 35.5 22.8937 36.1502 21.1154C36.18 21.0072 36.1676 20.8917 36.1157 20.7921C36.0637 20.6926 35.976 20.6164 35.8702 20.5789C35.7644 20.5414 35.6483 20.5453 35.5453 20.5899C35.4422 20.6344 35.3599 20.7164 35.3147 20.8192C34.6812 22.5546 33.9145 24.2385 33.0216 25.8558C32.8172 26.2291 32.6038 26.6024 32.3876 26.9668C32.3297 27.0674 32.3134 27.1865 32.3421 27.2989C32.3709 27.4113 32.4425 27.508 32.5416 27.5683Z"/>
    </symbol>

    <symbol id="icon7" viewBox="0 0 64 64">
        <path d="M59.3462 28.0806L50.6372 9.54189C50.5781 9.41167 50.4803 9.29606 50.3755 9.20713C50.2084 9.06039 49.9956 8.97336 49.7555 8.97336H36.8481C36.4187 7.15531 34.7957 5.79718 32.8595 5.79718C30.9233 5.79718 29.2996 7.15531 28.8708 8.97336H15.9273C15.5143 8.97336 15.1662 9.23698 15.0341 9.60415C14.9293 9.69308 14.8372 9.79853 14.7781 9.92875L6.06903 28.4675C6.06903 28.4675 5.87592 28.794 5.87592 29.1396C5.87592 35.0517 10.4356 39.8611 16.0397 39.8611C21.6437 39.8611 26.2035 35.0517 26.2035 29.1396C26.2035 28.834 26.1736 28.7444 25.9335 28.2909L16.9875 10.8791H28.8702C29.2253 12.3827 30.3973 13.5674 31.8882 13.9333V49.6284H22.8177C22.291 49.6284 21.8648 50.0547 21.8648 50.5813V55.028C21.8648 55.5546 22.291 55.9808 22.8177 55.9808H42.9826C43.5092 55.9808 43.9354 55.5546 43.9354 55.028V50.5813C43.9354 50.0547 43.5092 49.6284 42.9826 49.6284H33.7945V13.9428C35.3026 13.5871 36.4911 12.3947 36.8487 10.8791H48.2182L39.4818 27.904C39.2417 28.3576 39.2118 28.4471 39.2118 28.7527C39.2118 34.6648 43.7715 39.4742 49.3756 39.4742C54.9796 39.4742 59.5394 34.6648 59.5394 28.7527C59.5394 28.4071 59.3462 28.0806 59.3462 28.0806ZM16.0397 37.9547C11.7881 37.9547 8.27584 34.506 7.82927 30.0918H24.2501C23.8035 34.5067 20.2913 37.9547 16.0397 37.9547ZM23.7521 28.1867L8.19897 28.3874L15.6865 12.5377L23.7521 28.1867ZM42.0297 51.5335V54.0745H23.7705V51.5335H42.0297ZM35.039 10.1092C34.9449 11.2481 34.0092 12.1489 32.8595 12.1489C31.6474 12.1489 30.6615 11.1516 30.6615 9.92558C30.6615 8.69957 31.6474 7.70225 32.8595 7.70225C34.0092 7.70225 34.9449 8.60302 35.039 9.74199C35.0275 9.80171 35.0205 9.86269 35.0205 9.92558C35.0205 9.98847 35.0275 10.0501 35.039 10.1092ZM49.7294 12.1508L57.2169 28.0006L41.6638 27.7998L49.7294 12.1508ZM49.3756 37.5679C45.124 37.5679 41.6117 34.1198 41.1652 29.7049H57.586C57.1394 34.1192 53.6272 37.5679 49.3756 37.5679Z"/>
    </symbol>

    <symbol id="icon8" viewBox="0 0 64 64">
        <path d="M50.4223 6.43824H40.2869V2.10358C40.2869 1.59362 39.8407 1.1474 39.3307 1.1474H24.2231C23.7132 1.1474 23.267 1.59362 23.267 2.10358V6.43824H12.5578C10.3267 6.43824 8.54187 8.2231 8.54187 10.4542V58.5179C8.54187 60.749 10.3267 62.5339 12.5578 62.5339H50.4861C52.7172 62.5339 54.502 60.749 54.502 58.5179V10.4542C54.4383 8.2231 52.6534 6.43824 50.4223 6.43824ZM24.2231 18.8048H39.3307C39.8407 18.8048 40.2869 18.3586 40.2869 17.8486V13.7052H46.9801V54.9482H16V13.7689H23.267V17.8486C23.267 18.4223 23.7132 18.8048 24.2231 18.8048ZM38.3745 3.05975V12.749V16.8924H25.1793V12.749V7.33067V3.05975H38.3745ZM52.5259 58.4542C52.5259 59.6016 51.5697 60.5578 50.4223 60.5578H12.5578C11.4104 60.5578 10.4542 59.6016 10.4542 58.4542V10.4542C10.4542 9.30676 11.4104 8.35059 12.5578 8.35059H23.267V11.8566H15.0439C14.5339 11.8566 14.0877 12.3028 14.0877 12.8127V55.9681C14.0877 56.4781 14.5339 56.9243 15.0439 56.9243H47.9363C48.4462 56.9243 48.8925 56.4781 48.8925 55.9681V12.8127C48.8925 12.3028 48.4462 11.8566 47.9363 11.8566H40.2869V8.35059H50.4223C51.5697 8.35059 52.5259 9.30676 52.5259 10.4542V58.4542Z"/>
        <path d="M18.3586 29.5776C18.3586 30.0876 18.8049 30.5338 19.3148 30.5338H43.8567C44.3666 30.5338 44.8128 30.0876 44.8128 29.5776C44.8128 29.0677 44.3666 28.6215 43.8567 28.6215H19.3148C18.8049 28.6215 18.3586 29.0677 18.3586 29.5776Z"/>
        <path d="M43.8567 35.3147H19.3148C18.8049 35.3147 18.3586 35.7609 18.3586 36.2709C18.3586 36.7808 18.8049 37.227 19.3148 37.227H43.8567C44.3666 37.227 44.8128 36.7808 44.8128 36.2709C44.8128 35.7609 44.3666 35.3147 43.8567 35.3147Z"/>
        <path d="M43.8567 42.3267H19.3148C18.8049 42.3267 18.3586 42.7729 18.3586 43.2828C18.3586 43.7928 18.8049 44.239 19.3148 44.239H43.8567C44.3666 44.239 44.8128 43.7928 44.8128 43.2828C44.8128 42.7729 44.3666 42.3267 43.8567 42.3267Z"/>
    </symbol>

    <symbol id="mail" viewBox="0 0 24 25">
        <path d="M20 5.2334H4C3.44772 5.2334 3 5.68111 3 6.2334V18.2334C3 18.7857 3.44772 19.2334 4 19.2334H20C20.5523 19.2334 21 18.7857 21 18.2334V6.2334C21 5.68111 20.5523 5.2334 20 5.2334Z"
              stroke-width="2" stroke-linecap="round" stroke-linejoin="round"/>
        <path d="M3 8.2334L12 13.2334L21 8.2334" stroke-width="2" stroke-linecap="round" stroke-linejoin="round"/>
    </symbol>

    <symbol id="telegram" viewBox="0 0 24 24">
        <path d="M12 0C5.37058 0 0 5.37135 0 12C0 18.6286 5.37135 24 12 24C18.6294 24 24 18.6286 24 12C24 5.37135 18.6286 0 12 0ZM17.8939 8.22116L15.9244 17.5022C15.7788 18.1603 15.3871 18.3197 14.8405 18.0101L11.8405 15.799L10.3935 17.1925C10.2341 17.352 10.0986 17.4875 9.7889 17.4875L10.0018 14.4341L15.5613 9.4111C15.8036 9.19819 15.5079 9.07742 15.1881 9.29032L8.31716 13.6157L5.35587 12.6914C4.71252 12.4885 4.69781 12.048 5.49135 11.7383L17.0609 7.27665C17.5982 7.0831 18.0674 7.40748 17.8932 8.22039L17.8939 8.22116Z"/>
    </symbol>

    <symbol id="vk" viewBox="0 0 24 24">
        <path fill-rule="evenodd" clip-rule="evenodd"
              d="M12 24C18.6274 24 24 18.6274 24 12C24 5.37258 18.6274 0 12 0C5.37258 0 0 5.37258 0 12C0 18.6274 5.37258 24 12 24ZM19.5209 17.0518C19.2022 16.4036 17.908 15.0072 17.908 15.0072C16.7144 13.7857 16.7144 13.704 17.8379 12.0943L18.3912 11.2961C19.6306 9.46142 19.7099 8.85652 19.6428 8.65822C19.6047 8.53324 19.4019 8.48492 19.1062 8.48492H16.3912C16.3255 8.48406 16.2606 8.50064 16.2021 8.53324C16.1269 8.58226 16.0627 8.70477 16.0368 8.7542C16.0354 8.75687 16.0341 8.75932 16.0329 8.76154C15.7779 9.49221 15.4747 10.2017 15.1259 10.8845C13.9947 13.0058 13.577 13.0058 13.4383 13.0058C13.3768 13.0056 13.3166 12.9865 13.2645 12.9508C12.8661 12.6633 12.8833 11.9644 12.8986 11.3473L12.8987 11.3428C12.8987 11.2843 12.8999 11.2277 12.9011 11.1728C12.9022 11.1213 12.9032 11.0713 12.9032 11.0228C12.9032 10.5629 12.917 10.173 12.9307 9.82803C12.9749 8.61323 12.9642 8.25829 12.4612 8.12665C12.2127 8.05832 12.0358 8.01 11.3498 8H10.9977C10.365 8 9.72782 8.02833 9.37415 8.22163C9.25382 8.28753 9.14977 8.38412 9.07079 8.50325C9.26592 8.54324 9.58757 8.65156 9.77661 8.93651C10.0403 9.32978 10.0419 10.1496 10.0419 10.228C10.0647 10.6446 10.1608 12.6526 9.6455 12.9658C9.58036 13.0043 9.50764 13.0249 9.43361 13.0258C9.03878 13.0258 8.54638 12.3993 7.743 10.8562C7.30246 10.0146 7.01499 9.25596 6.89881 8.94937C6.88434 8.91116 6.87252 8.87998 6.86339 8.85652C6.79327 8.67489 6.69266 8.46992 6.38472 8.46992H4.07519C3.81756 8.46992 3.58127 8.63156 3.6956 8.93318C3.71084 8.9765 5.52493 13.6391 7.54025 15.9637C9.18665 17.8617 11.0449 17.9983 11.4017 17.9983H12.449C12.6426 17.9983 12.917 17.78 12.917 17.4001C12.917 16.1836 13.292 15.727 13.5847 15.6237C13.6314 15.6071 13.6803 15.5986 13.7295 15.5987C14.1167 15.5987 14.5009 16.0853 14.9445 16.6486L14.9461 16.6507C15.2429 17.0283 15.5472 17.4155 15.8561 17.6517C16.2585 17.955 16.5909 18 16.7494 18H19.0361C19.1611 17.99 19.527 17.8767 19.6337 17.6467C19.6977 17.5084 19.6672 17.3234 19.5376 17.0852C19.537 17.0837 19.5362 17.082 19.5354 17.08C19.5324 17.0728 19.528 17.0623 19.5209 17.0518Z"/>
    </symbol>

    <symbol id="fb" viewBox="0 0 24 24">
        <path d="M24 12.0733C24 5.40541 18.6274 0 12 0C5.37258 0 0 5.40541 0 12.0733C0 18.0995 4.38822 23.0943 10.125 24V15.5633H7.07813V12.0733H10.125V9.41342C10.125 6.38755 11.9165 4.71614 14.6576 4.71614C15.9705 4.71614 17.3438 4.95195 17.3438 4.95195V7.92312H15.8306C14.3399 7.92312 13.875 8.85379 13.875 9.80857V12.0733H17.2031L16.6711 15.5633H13.875V24C19.6118 23.0943 24 18.0995 24 12.0733Z"/>
    </symbol>

    <symbol id="instagram" viewBox="0 0 24 24">
        <g>
            <path fill-rule="evenodd" clip-rule="evenodd"
                  d="M12.0201 -0.0400391C8.75561 -0.0400391 8.34628 -0.0262028 7.06421 0.0322934C5.78481 0.0906409 4.91104 0.293856 4.14645 0.590977C3.35602 0.89816 2.6857 1.30916 2.01745 1.97739C1.34921 2.64566 0.938213 3.316 0.631029 4.10642C0.333909 4.87098 0.130707 5.74478 0.072319 7.02417C0.0138362 8.30624 0 8.71558 0 11.98C0 15.2445 0.0138362 15.6538 0.072319 16.9359C0.130707 18.2153 0.333909 19.0891 0.631029 19.8536C0.938213 20.644 1.34921 21.3144 2.01745 21.9827C2.6857 22.6509 3.35602 23.0619 4.14645 23.3691C4.91104 23.6662 5.78481 23.8694 7.06421 23.9278C8.34628 23.9862 8.75561 24.0001 12.0201 24.0001C15.2845 24.0001 15.6939 23.9862 16.9759 23.9278C18.2553 23.8694 19.1291 23.6662 19.8937 23.3691C20.6841 23.0619 21.3544 22.6509 22.0227 21.9827C22.6909 21.3144 23.1019 20.644 23.4091 19.8536C23.7062 19.0891 23.9094 18.2153 23.9678 16.9359C24.0263 15.6538 24.0401 15.2445 24.0401 11.98C24.0401 8.71558 24.0263 8.30624 23.9678 7.02417C23.9094 5.74478 23.7062 4.87098 23.4091 4.10642C23.1019 3.316 22.6909 2.64566 22.0227 1.97739C21.3544 1.30916 20.6841 0.89816 19.8937 0.590977C19.1291 0.293856 18.2553 0.0906409 16.9759 0.0322934C15.6939 -0.0262028 15.2845 -0.0400391 12.0201 -0.0400391ZM12.0201 2.12573C15.2295 2.12573 15.6097 2.138 16.8772 2.19583C18.0491 2.24927 18.6856 2.44509 19.1092 2.6097C19.6702 2.82774 20.0706 3.08822 20.4912 3.50881C20.9119 3.92946 21.1723 4.32987 21.3904 4.89093C21.555 5.31449 21.7508 5.95094 21.8043 7.12288C21.8621 8.39035 21.8744 8.77054 21.8744 11.98C21.8744 15.1895 21.8621 15.5697 21.8043 16.8372C21.7508 18.0091 21.555 18.6456 21.3904 19.0691C21.1723 19.6302 20.9119 20.0306 20.4912 20.4512C20.0706 20.8718 19.6702 21.1323 19.1092 21.3503C18.6856 21.515 18.0491 21.7108 16.8772 21.7642C15.6099 21.8221 15.2298 21.8343 12.0201 21.8343C8.81034 21.8343 8.43025 21.8221 7.16293 21.7642C5.99098 21.7108 5.35453 21.515 4.93097 21.3503C4.36991 21.1323 3.9695 20.8718 3.54889 20.4512C3.12829 20.0306 2.86778 19.6302 2.64974 19.0691C2.48512 18.6456 2.28933 18.0091 2.23586 16.8372C2.17802 15.5697 2.16577 15.1895 2.16577 11.98C2.16577 8.77054 2.17802 8.39035 2.23586 7.12288C2.28933 5.95094 2.48512 5.31449 2.64974 4.89093C2.86778 4.32987 3.12827 3.92946 3.54888 3.50885C3.9695 3.08822 4.36991 2.82774 4.93097 2.6097C5.35453 2.44509 5.99098 2.24927 7.16293 2.19583C8.43039 2.138 8.81058 2.12573 12.0201 2.12573ZM12.0201 15.9868C9.80728 15.9868 8.01344 14.1929 8.01344 11.9801C8.01344 9.76724 9.80728 7.9734 12.0201 7.9734C14.233 7.9734 16.0268 9.76724 16.0268 11.9801C16.0268 14.1929 14.233 15.9868 12.0201 15.9868ZM12.0201 5.80762C8.61114 5.80762 5.84766 8.5711 5.84766 11.9801C5.84766 15.3891 8.61114 18.1525 12.0201 18.1525C15.4291 18.1525 18.1926 15.3891 18.1926 11.9801C18.1926 8.5711 15.4291 5.80762 12.0201 5.80762ZM18.4365 7.00639C19.2331 7.00639 19.8789 6.36064 19.8789 5.56401C19.8789 4.76738 19.2331 4.12158 18.4365 4.12158C17.6399 4.12158 16.9941 4.76738 16.9941 5.56401C16.9941 6.36064 17.6399 7.00639 18.4365 7.00639Z"/>
        </g>
    </symbol>

    <symbol id="youtube" viewBox="0 0 35 24">
        <path d="M13.7141 17.1428V6.85707L22.6215 12L13.7141 17.1428ZM33.569 3.74757C33.1747 2.27254 32.0131 1.11071 30.538 0.716475C27.8641 6.10347e-08 17.1427 0 17.1427 0C17.1427 0 6.4214 6.10347e-08 3.74758 0.716475C2.27254 1.11071 1.11071 2.27254 0.716475 3.74757C0 6.4214 0 11.9999 0 11.9999C0 11.9999 0 17.5786 0.716475 20.2523C1.11071 21.7272 2.27254 22.8892 3.74758 23.2833C6.4214 24 17.1427 24 17.1427 24C17.1427 24 27.8641 24 30.538 23.2833C32.0131 22.8892 33.1747 21.7272 33.569 20.2523C34.2855 17.5786 34.2855 11.9999 34.2855 11.9999C34.2855 11.9999 34.2855 6.4214 33.569 3.74757Z"/>
    </symbol>

    <symbol id="twitter" viewBox="0 0 25 24">
        <path d="M12.2852 0C5.65837 0 0.285156 5.37321 0.285156 12C0.285156 18.6268 5.65837 24 12.2852 24C18.9119 24 24.2852 18.6268 24.2852 12C24.2852 5.37321 18.9119 0 12.2852 0ZM18.0521 9.04554C18.0602 9.17143 18.0602 9.30268 18.0602 9.43125C18.0602 13.3634 15.0655 17.8929 9.59319 17.8929C7.90569 17.8929 6.34141 17.4027 5.02355 16.5589C5.26462 16.5857 5.49498 16.5964 5.74141 16.5964C7.13426 16.5964 8.41462 16.125 9.43516 15.3268C8.12801 15.3 7.0298 14.4429 6.6548 13.2643C7.11283 13.3313 7.52533 13.3313 7.99676 13.2107C7.32371 13.074 6.71875 12.7084 6.28466 12.1762C5.85058 11.644 5.61414 10.9779 5.61551 10.2911V10.2536C6.00926 10.4759 6.47266 10.6125 6.95748 10.6313C6.54991 10.3596 6.21567 9.99164 5.98438 9.5599C5.7531 9.12817 5.63192 8.64603 5.63159 8.15625C5.63159 7.60179 5.77623 7.09554 6.03605 6.65625C6.78311 7.5759 7.71533 8.32806 8.77212 8.86384C9.8289 9.39961 10.9866 9.70702 12.17 9.76607C11.7494 7.74375 13.2602 6.10714 15.0762 6.10714C15.9334 6.10714 16.7048 6.46607 17.2485 7.04464C17.9209 6.91875 18.5637 6.66696 19.1369 6.32946C18.9146 7.01786 18.4485 7.59911 17.8298 7.96607C18.4298 7.90179 19.0084 7.73571 19.5441 7.50268C19.1396 8.09732 18.6334 8.625 18.0521 9.04554Z"/>
    </symbol>

    <symbol id="close" viewBox="0 0 24 24">
        <path d="M19 19L5 5" stroke-width="2" stroke-linecap="round" stroke-linejoin="round"/>
        <path d="M19 5L5 19" stroke-width="2" stroke-linecap="round" stroke-linejoin="round"/>
    </symbol>

    <symbol id="arrow" viewBox="0 0 24 24">
        <path d="M10 19L3 12L10 5" stroke-width="2" stroke-linecap="round" stroke-linejoin="round"/>
        <path d="M3 12H21" stroke-width="2" stroke-linecap="round" stroke-linejoin="round"/>
    </symbol>

</svg>